<svg width="2697" height="1959" xmlns="http://www.w3.org/2000/svg" xmlns:xlink="http://www.w3.org/1999/xlink" xml:space="preserve" overflow="hidden"><g transform="translate(-824 -255)"><path d="M828.5 293.944C828.5 274.921 843.921 259.5 862.944 259.5L3482.06 259.5C3501.08 259.5 3516.5 274.921 3516.5 293.944L3516.5 1515.06C3516.5 1534.08 3501.08 1549.5 3482.06 1549.5L862.944 1549.5C843.921 1549.5 828.5 1534.08 828.5 1515.06Z" stroke="#000000" stroke-width="9.16667" stroke-miterlimit="8" fill="#E5E5E5" fill-rule="evenodd"/><path d="M901 335.834C901 323.775 910.775 314 922.834 314L3109.17 314C3121.22 314 3131 323.775 3131 335.834L3131 423.166C3131 435.225 3121.22 445 3109.17 445L922.834 445C910.775 445 901 435.225 901 423.166Z" fill="#45794F" fill-rule="evenodd"/><text fill="#FFFFFF" font-family="Arial,Arial_MSFontService,sans-serif" font-weight="400" font-size="83" transform="matrix(1 0 0 1 1463.99 410)">Device Policy Manager (DPM)</text><path d="M1212 569.834C1212 557.775 1221.78 548 1233.83 548L2118.17 548C2130.22 548 2140 557.775 2140 569.834L2140 657.166C2140 669.224 2130.22 679 2118.17 679L1233.83 679C1221.78 679 1212 669.224 1212 657.166Z" fill="#465977" fill-rule="evenodd"/><text fill="#FFFFFF" font-family="Arial,Arial_MSFontService,sans-serif" font-weight="400" font-size="83" transform="matrix(1 0 0 1 1332.39 644)">Policy Engine (PE)</text><path d="M1210 779.834C1210 767.775 1219.78 758 1231.83 758L2112.17 758C2124.22 758 2134 767.775 2134 779.834L2134 867.166C2134 879.224 2124.22 889 2112.17 889L1231.83 889C1219.78 889 1210 879.224 1210 867.166Z" fill="#465977" fill-rule="evenodd"/><text fill="#FFFFFF" font-family="Arial,Arial_MSFontService,sans-serif" font-weight="400" font-size="83" transform="matrix(1 0 0 1 1287.18 854)">Protocol Layer (PRL)</text><path d="M2208 687.833C2208 675.775 2217.78 666 2229.83 666L3109.17 666C3121.22 666 3131 675.775 3131 687.833L3131 775.167C3131 787.225 3121.22 797 3109.17 797L2229.83 797C2217.78 797 2208 787.225 2208 775.167Z" fill="#465977" fill-rule="evenodd"/><text fill="#FFFFFF" font-family="Arial,Arial_MSFontService,sans-serif" font-weight="400" font-size="83" transform="matrix(1 0 0 1 2250.16 762)">Cable Detection (CAD)</text><path d="M1140.5 513.382C1140.5 506.82 1145.82 501.5 1152.38 501.5L3190.62 501.5C3197.18 501.5 3202.5 506.82 3202.5 513.382L3202.5 934.618C3202.5 941.18 3197.18 946.5 3190.62 946.5L1152.38 946.5C1145.82 946.5 1140.5 941.18 1140.5 934.618Z" stroke="#465977" stroke-width="6.875" stroke-linecap="square" stroke-miterlimit="8" stroke-dasharray="20.625 6.875" fill="none" fill-rule="evenodd"/><path d="M922.834 1475C910.775 1475 901 1465.22 901 1453.17L901 569.834C901 557.775 910.775 548 922.834 548L1010.17 548C1022.22 548 1032 557.775 1032 569.834L1032 1453.17C1032 1465.22 1022.22 1475 1010.17 1475Z" fill="#45794F" fill-rule="evenodd"/><text fill="#FFFFFF" font-family="Arial,Arial_MSFontService,sans-serif" font-weight="400" font-size="83" transform="matrix(-1.83697e-16 -1 1 -1.83697e-16 997.101 1128)">Power</text><path d="M962.694 524.417 962.193 467.952 970.214 467.88 970.715 524.346ZM980.413 519.676 966.908 547.297 952.914 519.92ZM952.495 472.621 966 445 979.994 472.377Z" fill="#465977"/><path d="M4.16567 22.889 4.76299 111.007-3.25766 111.061-3.85498 22.9433ZM-13.5633 27.5926 0 0 13.9361 27.4062ZM14.4713 106.357 0.908005 133.95-13.0281 106.544Z" fill="#465977" transform="matrix(-1 0 0 1 966.908 1475)"/><path d="M4.01045 22.9166 4.01075 252.471-4.01009 252.471-4.01039 22.9166ZM-13.75 27.5 0 0 13.75 27.5ZM13.7503 247.887 0.000360892 275.387-13.7497 247.887Z" fill="#465977" transform="matrix(1 0 0 -1 2670 1072.39)"/><path d="M4.01045 22.9167 4.01074 197.734-4.01009 197.734-4.01038 22.9167ZM-13.75 27.5 0 0 13.75 27.5ZM13.7503 193.15 0.000360892 220.65-13.7497 193.15Z" fill="#465977" transform="matrix(1 0 0 -1 2670 665.651)"/><path d="M5.14529 22.6888 6.83038 56.5258-1.18053 56.9248-2.86561 23.0878ZM-12.3652 28.1499 0 0 15.1008 26.7821ZM16.3299 51.4637 3.96476 79.6136-11.136 52.8315Z" fill="#465977" transform="matrix(1 0 0 -1 1672 758.613)"/><path d="M4.0105 22.9167 4.01069 75.6448-4.01014 75.6449-4.01033 22.9167ZM-13.7499 27.5001 0 0 13.7501 27.5ZM13.7503 71.0615 0.000360892 98.5615-13.7497 71.0616Z" fill="#465977" transform="matrix(1 0 0 -1 1676 547.561)"/><path d="M1212 1630.83C1212 1618.78 1221.78 1609 1233.83 1609L3109.17 1609C3121.22 1609 3131 1618.78 3131 1630.83L3131 1718.17C3131 1730.22 3121.22 1740 3109.17 1740L1233.83 1740C1221.78 1740 1212 1730.22 1212 1718.17Z" fill="#A3A2A7" fill-rule="evenodd"/><text fill="#FFFFFF" font-family="Arial,Arial_MSFontService,sans-serif" font-weight="400" font-size="83" transform="matrix(1 0 0 1 1846.4 1705)">Type</text><text fill="#FFFFFF" font-family="Arial,Arial_MSFontService,sans-serif" font-weight="400" font-size="83" transform="matrix(1 0 0 1 2025.18 1705)">-</text><text fill="#FFFFFF" font-family="Arial,Arial_MSFontService,sans-serif" font-weight="400" font-size="83" transform="matrix(1 0 0 1 2052.68 1705)">C connector</text><path d="M4.01048 22.9167 4.01072 111.033-4.01012 111.033-4.01035 22.9167ZM-13.7499 27.5 0 0 13.7501 27.5ZM13.7503 106.45 0.000360892 133.95-13.7497 106.45Z" fill="#A3A2A7" transform="matrix(1 0 0 -1 2172 1608.95)"/><path d="M1140.5 1031.96C1140.5 1028.39 1143.39 1025.5 1146.96 1025.5L3196.04 1025.5C3199.61 1025.5 3202.5 1028.39 3202.5 1031.96L3202.5 1261.04C3202.5 1264.61 3199.61 1267.5 3196.04 1267.5L1146.96 1267.5C1143.39 1267.5 1140.5 1264.61 1140.5 1261.04Z" stroke="#465977" stroke-width="6.875" stroke-linecap="square" stroke-miterlimit="8" stroke-dasharray="20.625 6.875" fill="none" fill-rule="evenodd"/><path d="M1210 1098.83C1210 1086.78 1219.78 1077 1231.83 1077L2116.17 1077C2128.22 1077 2138 1086.78 2138 1098.83L2138 1186.17C2138 1198.22 2128.22 1208 2116.17 1208L1231.83 1208C1219.78 1208 1210 1198.22 1210 1186.17Z" fill="#465977" fill-rule="evenodd"/><text fill="#FFFFFF" font-family="Arial,Arial_MSFontService,sans-serif" font-weight="400" font-size="83" transform="matrix(1 0 0 1 1406.06 1173)">Physical Layer</text><path d="M2208 1098.83C2208 1086.78 2217.78 1077 2229.83 1077L3113.17 1077C3125.22 1077 3135 1086.78 3135 1098.83L3135 1186.17C3135 1198.22 3125.22 1208 3113.17 1208L2229.83 1208C2217.78 1208 2208 1198.22 2208 1186.17Z" fill="#465977" fill-rule="evenodd"/><text fill="#FFFFFF" font-family="Arial,Arial_MSFontService,sans-serif" font-weight="400" font-size="83" transform="matrix(1 0 0 1 2270.49 1173)">Type</text><text fill="#FFFFFF" font-family="Arial,Arial_MSFontService,sans-serif" font-weight="400" font-size="83" transform="matrix(1 0 0 1 2449.26 1173)">-</text><text fill="#FFFFFF" font-family="Arial,Arial_MSFontService,sans-serif" font-weight="400" font-size="83" transform="matrix(1 0 0 1 2476.76 1173)">C state machine</text><text fill="#465977" font-family="Arial,Arial_MSFontService,sans-serif" font-weight="700" font-size="64" transform="matrix(1 0 0 1 3258.11 1129)">Device</text><text fill="#465977" font-family="Arial,Arial_MSFontService,sans-serif" font-weight="700" font-size="64" transform="matrix(1 0 0 1 3258.11 1206)">MW</text><text fill="#465977" font-family="Arial,Arial_MSFontService,sans-serif" font-weight="700" font-size="64" transform="matrix(1 0 0 1 3258.11 707)">Cor</text><text fill="#465977" font-family="Arial,Arial_MSFontService,sans-serif" font-weight="700" font-size="64" transform="matrix(1 0 0 1 3368.68 707)">e</text><text fill="#465977" font-family="Arial,Arial_MSFontService,sans-serif" font-weight="700" font-size="64" transform="matrix(1 0 0 1 3258.11 784)">MW</text><path d="M1212 1365.83C1212 1353.78 1221.78 1344 1233.83 1344L3109.17 1344C3121.22 1344 3131 1353.78 3131 1365.83L3131 1453.17C3131 1465.22 3121.22 1475 3109.17 1475L1233.83 1475C1221.78 1475 1212 1465.22 1212 1453.17Z" fill="#A3A2A7" fill-rule="evenodd"/><text fill="#FFFFFF" font-family="Arial,Arial_MSFontService,sans-serif" font-weight="400" font-size="83" transform="matrix(1 0 0 1 1864.75 1440)">UCPD Hardware</text><path d="M4.01048 22.9167 4.01072 113.591-4.01012 113.591-4.01036 22.9167ZM-13.7499 27.5 0 0 13.7501 27.5ZM13.7503 109.007 0.000360892 136.508-13.7497 109.008Z" fill="#465977" transform="matrix(1 0 0 -1 1674 1344.51)"/><path d="M4.01048 22.9167 4.01072 113.591-4.01012 113.591-4.01036 22.9167ZM-13.7499 27.5 0 0 13.7501 27.5ZM13.7503 109.007 0.000360892 136.508-13.7497 109.008Z" fill="#465977" transform="matrix(1 0 0 -1 2672 1344.51)"/><path d="M921.5 1631C921.5 1619.13 931.126 1609.5 943.001 1609.5L1235 1609.5C1246.87 1609.5 1256.5 1619.13 1256.5 1631L1256.5 1717C1256.5 1728.87 1246.87 1738.5 1235 1738.5L943.001 1738.5C931.126 1738.5 921.5 1728.87 921.5 1717Z" stroke="#000000" stroke-width="4.58333" stroke-miterlimit="8" fill="#A3A2A7" fill-rule="evenodd"/><text fill="#FFFFFF" font-family="Arial,Arial_MSFontService,sans-serif" font-weight="400" font-size="83" transform="matrix(1 0 0 1 976.171 1704)">VBUS</text><path d="M1669.75 1053.28 1668.24 911.958 1676.26 911.872 1677.77 1053.19ZM1687.46 1048.51 1674.01 1076.15 1659.96 1048.8ZM1658.55 916.646 1672 889 1686.04 916.351Z" fill="#465977"/><path d="M1555 1929.83C1555 1923.3 1560.3 1918 1566.83 1918L1664.17 1918C1670.7 1918 1676 1923.3 1676 1929.83L1676 1977.17C1676 1983.7 1670.7 1989 1664.17 1989L1566.83 1989C1560.3 1989 1555 1983.7 1555 1977.17Z" fill="#45794F" fill-rule="evenodd"/><text fill="#03234B" font-family="Arial,Arial_MSFontService,sans-serif" font-weight="400" font-size="64" transform="matrix(1 0 0 1 1705.18 1976)">App: to be customized by user</text><path d="M1555 2020.83C1555 2014.3 1560.3 2009 1566.83 2009L1664.17 2009C1670.7 2009 1676 2014.3 1676 2020.83L1676 2068.17C1676 2074.7 1670.7 2080 1664.17 2080L1566.83 2080C1560.3 2080 1555 2074.7 1555 2068.17Z" fill="#465977" fill-rule="evenodd"/><text fill="#03234B" font-family="Arial,Arial_MSFontService,sans-serif" font-weight="400" font-size="64" transform="matrix(1 0 0 1 1705.18 2067)">Middleware</text><path d="M1555 2113C1555 2106.37 1560.37 2101 1567 2101L1664 2101C1670.63 2101 1676 2106.37 1676 2113L1676 2161C1676 2167.63 1670.63 2173 1664 2173L1567 2173C1560.37 2173 1555 2167.63 1555 2161Z" fill="#A3A2A7" fill-rule="evenodd"/><text fill="#03234B" font-family="Arial,Arial_MSFontService,sans-serif" font-weight="400" font-size="64" transform="matrix(1 0 0 1 1705.18 2160)">Hardware</text></g></svg>